# AST/ASF file generated using VICON BodyLanguage
# -----------------------------------------------
:version 1.10
:name VICON
:units
  mass 1.0
  length 0.45
  angle deg
:documentation
   .ast/.asf automatically generated from VICON data using
   VICON BodyBuilder and BodyLanguage model FoxedUp or BRILLIANT.MOD
:root
   order TX TY TZ RX RY RZ
   axis XYZ
   position 0 0 0  
   orientation 0 0 0 
:bonedata
  begin
     id 1 
     name lhipjoint
     direction 0.690799 -0.707083 0.151096 
     length 2.54797 
     axis 0 0 0  XYZ
  end
  begin
     id 2 
     name lfemur
     direction 0.34202 -0.939693 0  
     length 7.21646  
     axis 0 0 20  XYZ
    dof rx ry rz
    limits (-160.0 20.0)
           (-70.0 70.0)
           (-60.0 70.0)
  end
  begin
     id 3 
     name ltibia
     direction 0.34202 -0.939693 0   
     length 8.16759   
     axis 0 0 20   XYZ
    dof rx
    limits (-10.0 170.0)
  end
  begin
     id 4 
     name lfoot
     direction 0.0487203 -0.133858 0.989802   
     length 1.93375   
     axis -90 7.62852e-016 20   XYZ
    dof rx rz
    limits (-45.0 90.0)
           (-70.0 20.0)
  end
  begin
     id 5 
     name ltoes
     direction 1.53453e-011 -4.21783e-011 1   
     length 0.979747   
     axis -90 7.62852e-016 20   XYZ
    dof rx
    limits (-90.0 20.0)
  end
  begin
     id 6 
     name rhipjoint
     direction -0.694693 -0.703425 0.150315   
     length 2.56122  
     axis 0 0 0  XYZ 
  end
  begin
     id 7 
     name rfemur
     direction -0.34202 -0.939693 0   
     length 7.36786   
     axis 0 0 -20   XYZ
    dof rx ry rz
    limits (-160.0 20.0)
           (-70.0 70.0)
           (-70.0 60.0)
  end
  begin
     id 8 
     name rtibia
     direction -0.34202 -0.939693 0   
     length 8.07288   
     axis 0 0 -20   XYZ
    dof rx
    limits (-10.0 170.0)
 end
 begin
     id 9 
     name rfoot
     direction -0.0428397 -0.117701 0.992125   
     length 1.88295  
     axis -90 -7.62852e-016 -20   XYZ
    dof rx rz
    limits (-45.0 90.0)
           (-20.0 70.0)
  end
  begin
     id 10 
     name rtoes
     direction -1.53456e-011 -4.2187e-011 1   
     length 0.955578   
     axis -90 -7.62852e-016 -20   XYZ
    dof rx
    limits (-90.0 20.0)
  end
  begin
     id 11 
     name lowerback
     direction 0.0288145 0.999398 -0.0193241   
     length 1.92149   
     axis 0 0 0   XYZ
    dof rx ry rz
    limits (-20.0 45.0)
           (-30.0 30.0)
           (-30.0 30.0)
  end
  begin
     id 12 
     name upperback
     direction 0.0233784 0.998099 0.0570278   
     length 1.90435   
     axis 0 0 0   XYZ
    dof rx ry rz
    limits (-20.0 45.0)
           (-30.0 30.0)
           (-30.0 30.0)
  end
  begin
     id 13 
     name thorax
     direction 0.0096694 0.997833 0.0650817   
     length 1.9111   
     axis 0 0 0   XYZ
    dof rx ry rz
    limits (-20.0 45.0)
           (-30.0 30.0)
           (-30.0 30.0)
  end
  begin
     id 14 
     name lowerneck
     direction 0.00516803 0.999916 0.0118722   
     length 1.74664   
     axis 0 0 0   XYZ
    dof rx ry rz
    limits (-20.0 45.0)
           (-30.0 30.0)
           (-30.0 30.0)
  end
  begin
     id 15 
     name upperneck
     direction -0.0510851 0.996117 -0.071696   
     length 1.68498   
     axis 0 0 0   XYZ
    dof rx ry rz
    limits (-20.0 45.0)
           (-30.0 30.0)
           (-30.0 30.0)
  end
  begin
     id 16
     name head
     direction -0.019188 0.999436 -0.0275702  
     length 1.83483  
     axis 0 0 0   XYZ
    dof rx ry rz
    limits (-20.0 45.0)
           (-30.0 30.0)
           (-30.0 30.0)
  end
  begin
     id 17 
     name lclavicle
     direction 0.967006 0.248456 -0.0562957  
     length 3.39395  
     axis 0 0 0   XYZ
    dof ry rz
    limits (-20.0 10.0)
           (0.0 20.0)
  end
  begin
     id 18 
     name lhumerus
     direction 1 -4.48962e-011 -5.62711e-019   
     length 5.24318   
     axis 180 -30 -90   XYZ
    dof rx ry rz
    limits (-60.0 90.0)
           (-90.0 90.0)
           (-90.0 90.0)
  end
  begin
     id 19
     name lradius
     direction 1 -4.48966e-011 7.90625e-027   
     length 2.98999   
     axis 180 -30 -90   XYZ
    dof rx
    limits (-10.0 170.0)
  end
  begin
     id 20
     name lwrist
     direction 1 -4.48959e-011 1.61068e-026   
     length 1.49499   
     axis -9.31229e-015 90 90   XYZ
    dof ry
    limits (-180.0 0.0)
 end
  begin
     id 21 
     name lhand
     direction 1 -4.49017e-011 3.22136e-026   
     length 0.726745   
     axis -2.0555e-014 90 90   XYZ
    dof rx rz
    limits (-90.0 90.0)
           (-45.0 45.0)
  end
  begin
     id 22 
     name lfingers
     direction 1 -4.4898e-011 6.44272e-026   
     length 0.58592   
     axis -4.11101e-014 90 90   XYZ
    dof rx
    limits (0.0 90.0)
  end
  begin
     id 23
     name lthumb
     direction 0.707107 -6.34922e-011 0.707107   
     length 0.841268   
     axis -90 45 2.85299e-015   XYZ
    dof rx rz
    limits (-45.0 45.0)
           (-45.0 45.0)
  end
  begin
     id 24 
     name rclavicle
     direction -0.972232 0.230238 0.0419005   
     length 3.40416  
     axis 0 0 0   XYZ 
    dof ry rz
    limits (-10.0 20.0)
           (-20.0 0.0)
  end
  begin
     id 25 
     name rhumerus
     direction -1 -4.48976e-011 2.48487e-027  
     length 5.37045   
     axis 180 30 90   XYZ
    dof rx ry rz
    limits (-90.0 60.0)
           (-90.0 90.0)
           (-90.0 90.0)
  end
  begin
     id 26 
     name rradius
     direction -1 -4.48942e-011 7.87951e-027   
     length 2.92792   
     axis 180 30 90   XYZ
    dof rx
    limits (-10.0 170.0)
  end
  begin
     id 27 
     name rwrist
     direction -1 -4.48969e-011 1.61068e-026   
     length 1.46396   
     axis -9.31229e-015 -90 -90   XYZ
    dof ry
    limits (-180.0 0.0)
  end
  begin
     id 28
     name rhand
     direction -1 -4.49043e-011 3.22136e-026   
     length 0.784497   
     axis -2.0555e-014 -90 -90   XYZ
    dof rx rz
    limits (-90.0 90.0)
           (-45.0 45.0)
  end
  begin
     id 29
     name rfingers
     direction -1 -4.48823e-011 6.44272e-026   
     length 0.632482   
     axis -4.11101e-014 -90 -90   XYZ
    dof rx
    limits (0.0 90.0)
  end
  begin
     id 30
     name rthumb
     direction -0.707107 -6.34923e-011 0.707107   
     length 0.908121   
     axis -90 -45 -2.85299e-015   XYZ
    dof rx rz
    limits (-45.0 45.0)
           (-45.0 45.0)
  end
:hierarchy
  begin
    root lhipjoint rhipjoint lowerback
    lhipjoint lfemur
    lfemur ltibia
    ltibia lfoot
    lfoot ltoes
    rhipjoint rfemur
    rfemur rtibia
    rtibia rfoot
    rfoot rtoes
    lowerback upperback
    upperback thorax
    thorax lowerneck lclavicle rclavicle
    lowerneck upperneck
    upperneck head
    lclavicle lhumerus
    lhumerus lradius
    lradius lwrist
    lwrist lhand lthumb
    lhand lfingers
    rclavicle rhumerus
    rhumerus rradius
    rradius rwrist
    rwrist rhand rthumb
    rhand rfingers
  end

#!OML:ASF E:\Style6\Style6.ASF
:FULLY-SPECIFIED
:DEGREES
1234
root 1.86186 17.8007 -0.709132 32.6468 -4.86679 -0.0788109
lowerback 20.8989 -2.98099 7.82077
upperback 1.13316 -1.71728 3.14178
thorax -10.6378 -1.0927 -0.458445
lowerneck -6.38151 -1.34183 1.2056
upperneck -8.71323 -4.64239 -35.8223
head -2.16433 -1.77661 -12.1691
rclavicle -3.18055e-015 2.94201e-014
rhumerus -27.3095 20.4681 -92.1446
rradius 58.6404
rwrist 27.3735
rhand -4.07364 2.08986
rfingers 7.12502
rthumb 21.6832 -26.7159
lclavicle -3.18055e-015 2.94201e-014
lhumerus -45.8382 -18.094 98.0087
lradius 69.8849
lwrist -14.6052
lhand -13.1776 23.9734
lfingers 7.12502
lthumb 12.922 53.5534
rfemur -50.8934 17.4439 -2.1821
rtibia 21.9267
rfoot -18.2363 -30.8247
rtoes 26.5272
lfemur -51.2523 0.687017 -24.8883
ltibia 30.385
lfoot -4.79291 6.6356
ltoes -16.2581
1235
root 1.85936 17.8002 -0.710867 32.6282 -4.9705 -0.0548396
lowerback 20.8321 -2.98174 7.71223
upperback 1.10918 -1.74969 3.14209
thorax -10.6266 -1.10296 -0.389123
lowerneck -6.35389 -1.33846 1.18284
upperneck -8.64265 -4.62172 -35.8509
head -2.14531 -1.77217 -12.1739
rclavicle 8.74653e-015 1.59028e-015
rhumerus -27.2667 20.6108 -92.2042
rradius 58.4006
rwrist 27.3921
rhand -4.25277 2.14678
rfingers 7.12502
rthumb 21.5112 -26.6787
lclavicle 8.74653e-015 1.59028e-015
lhumerus -45.8456 -18.0097 97.9943
lradius 69.8212
lwrist -14.5878
lhand -13.1233 24.046
lfingers 7.12502
lthumb 12.9743 53.6226
rfemur -50.8586 17.4462 -2.21024
rtibia 21.8153
rfoot -18.0415 -30.8241
rtoes 26.3171
lfemur -51.1843 0.73962 -24.9455
ltibia 30.2973
lfoot -4.80408 6.64746
ltoes -16.0023
1236
root 1.85786 17.8019 -0.711 32.5274 -4.97027 -0.0841927
lowerback 20.8348 -3.02103 7.75518
upperback 1.10168 -1.78892 3.15256
thorax -10.6405 -1.12338 -0.38919
lowerneck -6.28775 -1.33889 1.14127
upperneck -8.56 -4.60222 -35.8554
head -2.13011 -1.76557 -12.1632
rclavicle 1.78906e-014 -1.23246e-014
rhumerus -27.1695 20.7539 -92.2709
rradius 58.0385
rwrist 27.3478
rhand -4.47543 2.20562
rfingers 7.12502
rthumb 21.2974 -26.6442
lclavicle 1.78906e-014 -1.23246e-014
lhumerus -45.8762 -17.9098 98.0111
lradius 69.7378
lwrist -14.6428
lhand -13.1609 24.0798
lfingers 7.12502
lthumb 12.9381 53.6587
rfemur -50.6866 17.4868 -2.12553
rtibia 21.6978
rfoot -17.9526 -30.8718
rtoes 26.1569
lfemur -51.0339 0.754449 -24.9002
ltibia 30.2177
lfoot -4.80749 6.66732
ltoes -15.6091
1237
root 1.85712 17.8179 -0.710576 32.3725 -4.94548 -0.10844
lowerback 20.8233 -3.06251 7.83238
upperback 1.16021 -1.83177 3.1374
thorax -10.5739 -1.14495 -0.439277
lowerneck -6.25458 -1.34238 1.13776
upperneck -8.51617 -4.5975 -35.8599
head -2.12307 -1.76533 -12.1623
rclavicle -5.1684e-015 9.54166e-015
rhumerus -26.9339 20.8872 -92.3312
rradius 57.625
rwrist 27.2311
rhand -4.70375 2.20235
rfingers 7.12502
rthumb 21.078 -26.6721
lclavicle -5.1684e-015 9.54166e-015
lhumerus -45.8419 -17.8622 97.9613
lradius 69.6807
lwrist -14.7966
lhand -13.0886 24.1717
lfingers 7.12502
lthumb 13.0078 53.7462
rfemur -50.4029 17.5095 -1.98005
rtibia 21.5462
rfoot -17.6653 -30.9358
rtoes 25.7411
lfemur -50.7884 0.743101 -24.8396
ltibia 30.1146
lfoot -4.80332 6.7144
ltoes -15.425
1238
root 1.85374 17.8181 -0.711123 32.3475 -5.01068 -0.161135
lowerback 20.6917 -3.05213 7.85037
upperback 1.18744 -1.83246 3.12317
thorax -10.4712 -1.14422 -0.471708
lowerneck -6.15868 -1.35592 1.17147
upperneck -8.53922 -4.6415 -35.8881
head -2.15895 -1.77631 -12.1803
rclavicle -8.34896e-015 -3.37934e-014
rhumerus -26.8307 20.9756 -92.3898
rradius 57.4671
rwrist 27.1914
rhand -4.72912 2.15388
rfingers 7.12502
rthumb 21.0537 -26.7232
lclavicle -8.34896e-015 -3.37934e-014
lhumerus -45.8047 -17.8877 97.9072
lradius 69.6248
lwrist -14.8469
lhand -13.0157 24.2473
lfingers 7.12502
lthumb 13.0781 53.8173
rfemur -50.3439 17.5764 -1.94571
rtibia 21.4082
rfoot -17.6718 -30.9229
rtoes 26.2119
lfemur -50.7318 0.801723 -24.7979
ltibia 30.0554
lfoot -4.75995 6.73824
ltoes -15.8108
1239
root 1.84848 17.8175 -0.713164 32.3392 -5.13372 -0.172106
lowerback 20.6024 -3.01336 7.75461
upperback 1.17023 -1.81452 3.11148
thorax -10.437 -1.13163 -0.439453
lowerneck -6.0584 -1.34589 1.25541
upperneck -8.53362 -4.65083 -35.9963
head -2.18187 -1.77368 -12.2422
rclavicle 3.26007e-014 -4.01545e-014
rhumerus -26.8493 20.9557 -92.4608
rradius 57.4158
rwrist 27.3292
rhand -4.74211 2.16347
rfingers 7.12502
rthumb 21.0412 -26.715
lclavicle 3.26007e-014 -4.01545e-014
lhumerus -45.8097 -17.8995 97.8699
lradius 69.5697
lwrist -14.8062
lhand -12.9471 24.242
lfingers 7.12502
lthumb 13.1442 53.8077
rfemur -50.3421 17.6538 -1.99212
rtibia 21.2837
rfoot -17.7262 -30.8888
rtoes 26.5064
lfemur -50.6986 0.871098 -24.8067
ltibia 29.993
lfoot -4.68862 6.74052
ltoes -16.3073
1240
root 1.84609 17.8175 -0.716214 32.3327 -5.1702 -0.17961
lowerback 20.5081 -3.00845 7.76653
upperback 1.15766 -1.81541 3.10873
thorax -10.3994 -1.13236 -0.452343
lowerneck -6.13023 -1.30197 1.29314
upperneck -8.38847 -4.54075 -36.106
head -2.10414 -1.74295 -12.2944
rclavicle 2.62396e-014 -2.98177e-014
rhumerus -26.7983 20.9227 -92.4904
rradius 57.2442
rwrist 27.558
rhand -4.90959 2.25141
rfingers 7.12502
rthumb 20.8803 -26.6449
lclavicle 2.62396e-014 -2.98177e-014
lhumerus -45.7628 -17.987 97.8578
lradius 69.5024
lwrist -14.7861
lhand -12.9075 24.2478
lfingers 7.12502
lthumb 13.1823 53.811
rfemur -50.352 17.6297 -1.95044
rtibia 21.2743
rfoot -17.5044 -30.9134
rtoes 25.9281
lfemur -50.6997 0.840479 -24.7626
ltibia 29.9934
lfoot -4.65174 6.80029
ltoes -16.4683
1241
root 1.84449 17.8188 -0.719109 32.3192 -5.16058 -0.144717
lowerback 20.4105 -3.01754 7.79261
upperback 1.14132 -1.83141 3.10466
thorax -10.3659 -1.14093 -0.470096
lowerneck -6.18164 -1.27861 1.34299
upperneck -8.25594 -4.47184 -36.2504
head -2.0437 -1.72871 -12.3645
rclavicle -1.66979e-014 5.52621e-014
rhumerus -26.6832 20.8647 -92.5017
rradius 56.9257
rwrist 27.7043
rhand -5.09812 2.33561
rfingers 7.12502
rthumb 20.6991 -26.5805
lclavicle -1.66979e-014 5.52621e-014
lhumerus -45.7296 -18.0539 97.8856
lradius 69.3961
lwrist -14.8515
lhand -12.914 24.1724
lfingers 7.12502
lthumb 13.1761 53.7361
rfemur -50.3377 17.576 -1.9396
rtibia 21.2841
rfoot -17.3895 -30.9382
rtoes 25.8026
lfemur -50.676 0.784669 -24.7564
ltibia 29.9754
lfoot -4.62659 6.81685
ltoes -16.127
1242
root 1.84115 17.8197 -0.72194 32.2834 -5.21941 -0.098245
lowerback 20.367 -3.00029 7.72443
upperback 1.11964 -1.82879 3.09725
thorax -10.364 -1.13723 -0.441804
lowerneck -6.18124 -1.28032 1.3967
upperneck -8.16807 -4.45938 -36.3676
head -2.01828 -1.73305 -12.4242
rclavicle 2.3059e-014 -4.85035e-014
rhumerus -26.63 20.8934 -92.5165
rradius 56.7325
rwrist 27.7125
rhand -5.11551 2.30937
rfingers 7.12502
rthumb 20.6824 -26.6086
lclavicle 2.3059e-014 -4.85035e-014
lhumerus -45.7446 -18.0877 97.94
lradius 69.3143
lwrist -14.9155
lhand -12.9127 24.1872
lfingers 7.12502
lthumb 13.1774 53.7508
rfemur -50.3283 17.5784 -1.97785
rtibia 21.2938
rfoot -17.2353 -30.972
rtoes 25.6098
lfemur -50.6378 0.815305 -24.8218
ltibia 29.962
lfoot -4.59632 6.83272
ltoes -15.8521
